<svg fill="#232323" height="256px" width="256px" version="1.1" id="Capa_1" xmlns="http://www.w3.org/2000/svg" xmlns:xlink="http://www.w3.org/1999/xlink" viewBox="0 0 253.521 253.521" xml:space="preserve" stroke="#232323"><g id="SVGRepo_bgCarrier" stroke-width="0"></g><g id="SVGRepo_tracerCarrier" stroke-linecap="round" stroke-linejoin="round"></g><g id="SVGRepo_iconCarrier"> <path d="M253.521,63.882c0-34.482-28.054-62.536-62.536-62.536c-22.188,0-41.701,11.626-52.804,29.096 c-8.292-1.957-16.934-2.997-25.815-2.997C50.407,27.444,0,77.851,0,139.809s50.407,112.365,112.365,112.365 S224.73,201.768,224.73,139.809c0-7.522-0.749-14.872-2.165-21.984C241.066,106.952,253.521,86.849,253.521,63.882z M70.988,51.687 c-4.674,6.332-8.812,13.739-12.298,22.023c-4.462-3.017-7.521-5.911-9.421-7.992C55.82,60.132,63.117,55.398,70.988,51.687z M38.653,76.267c3.13,3.318,7.986,7.662,14.894,11.873c-3.96,13.317-6.41,28.244-6.999,44.17H15.286 C16.918,110.983,25.453,91.558,38.653,76.267z M39.215,203.992c-13.518-15.388-22.273-35.056-23.928-56.682h31.262 c0.604,16.338,3.17,31.621,7.313,45.197C47.178,196.539,42.402,200.702,39.215,203.992z M49.912,214.443 c1.99-2.083,4.988-4.79,9.184-7.581c3.4,7.9,7.399,14.981,11.893,21.07C63.373,224.342,56.296,219.794,49.912,214.443z M104.865,236.068c-12.878-3.813-24.348-17.239-32.266-36.182c8.302-3.272,18.921-5.866,32.266-6.588V236.068z M104.865,178.287 c-15.129,0.741-27.402,3.666-37.207,7.483c-3.368-11.675-5.517-24.72-6.095-38.461h43.302V178.287z M104.865,132.309H61.564 c0.56-13.312,2.598-25.969,5.787-37.361c9.856,3.875,22.226,6.855,37.515,7.604V132.309z M104.865,87.541 c-13.582-0.734-24.332-3.409-32.697-6.761c7.931-19.494,19.583-33.346,32.697-37.229V87.541z M119.865,43.551 c3.595,1.064,7.079,2.881,10.408,5.355c-1.185,4.801-1.825,9.814-1.825,14.976c0,7.863,1.473,15.385,4.134,22.324 c-3.928,0.635-8.171,1.089-12.717,1.335V43.551z M119.865,102.552c7.382-0.362,14.094-1.235,20.16-2.49 c5.727,8.043,13.303,14.676,22.109,19.276c0.496,4.238,0.846,8.568,1.031,12.971h-43.301V102.552z M119.865,147.309h43.301 c-0.578,13.741-2.727,26.786-6.095,38.461c-9.805-3.817-22.077-6.742-37.206-7.483V147.309z M119.865,236.068v-42.769 c13.346,0.721,23.966,3.315,32.266,6.586C144.213,218.828,132.744,232.255,119.865,236.068z M153.741,227.932 c4.495-6.09,8.494-13.173,11.895-21.074c4.204,2.796,7.203,5.505,9.188,7.582C168.438,219.792,161.358,224.341,153.741,227.932z M185.516,203.992c-3.188-3.289-7.964-7.453-14.647-11.486c4.143-13.576,6.708-28.859,7.313-45.197h31.263 C207.789,168.936,199.033,188.604,185.516,203.992z M178.181,132.309c-0.091-2.46-0.223-4.897-0.402-7.307 c4.26,0.919,8.675,1.416,13.205,1.416c6.054,0,11.903-0.882,17.443-2.494c0.455,2.759,0.8,5.554,1.017,8.385H178.181z M224.118,86.716c0,4.142-3.357,7.5-7.5,7.5h-51.268c-4.143,0-7.5-3.358-7.5-7.5V66.215c0-4.142,3.357-7.5,7.5-7.5h1.128V47.466 c0-12.831,10.438-23.27,23.27-23.27h2.473c12.831,0,23.27,10.438,23.27,23.27v11.249h1.128c4.143,0,7.5,3.358,7.5,7.5V86.716z M200.49,57.708h-19.012V47.466c0-4.56,3.71-8.27,8.27-8.27h2.473c4.56,0,8.27,3.709,8.27,8.27V57.708z"></path> </g></svg>